<?xml version="1.0" encoding="utf-8"?>
<!-- Generator: Adobe Illustrator 21.0.0, SVG Export Plug-In . SVG Version: 6.00 Build 0)  -->
<svg version="1.1" id="Capa_1" xmlns="http://www.w3.org/2000/svg" xmlns:xlink="http://www.w3.org/1999/xlink" x="0px" y="0px"
	 viewBox="0 0 491.9 377.3" style="enable-background:new 0 0 491.9 377.3;" xml:space="preserve">
<style type="text/css">
	.st0{fill:#FFFFFF;}
</style>
<g>
	<g>
		<g>
			<path class="st0" d="M377.5,167.7H201.3v58.7h107.5c-16,51-63.7,88.1-120.1,88.1c-69.5,0-125.8-56.3-125.8-125.8
				S119.2,62.9,188.7,62.9c35,0,66.6,14.3,89.5,37.3l42.6-46.3C286.8,20.5,240.2,0,188.7,0C84.5-0.1,0,84.4,0,188.6
				s84.5,188.7,188.7,188.7c91.3,0,171.2-64.8,188.7-151L377.5,167.7L377.5,167.7L377.5,167.7z"/>
			<polygon class="st0" points="491.9,167.6 455.8,167.6 455.8,131.5 424.9,131.5 424.9,167.6 388.9,167.6 388.9,198.4 424.9,198.4 
				424.9,234.5 455.8,234.5 455.8,198.4 491.9,198.4 			"/>
		</g>
	</g>
</g>
</svg>
