<?xml version="1.0" encoding="UTF-8"?>
<svg width="56px" height="48px" viewBox="0 0 56 48" version="1.1" xmlns="http://www.w3.org/2000/svg" xmlns:xlink="http://www.w3.org/1999/xlink">
    <!-- Generator: Sketch 44.1 (41455) - http://www.bohemiancoding.com/sketch -->
    <title>kanban</title>
    <desc>Created with Sketch.</desc>
    <defs></defs>
    <g id="Page-1" stroke="none" stroke-width="1" fill="none" fill-rule="evenodd">
        <g id="kanban">
            <g id="Page-1">
                <g id="Group-148">
                    <path d="M0.224,47.832 L0.224,4.297 C0.224,2.352 2.259,0.769 4.76,0.769 L51.426,0.769 C53.925,0.769 55.96,2.352 55.96,4.297 L55.96,47.25 C55.96,47.25 55.486,47.814 54.899,47.814 C54.313,47.814 53.837,46.707 53.837,46.25 L53.837,4.297 C53.837,3.262 52.754,2.422 51.426,2.422 L4.76,2.422 C3.43,2.422 2.347,3.262 2.347,4.297 L2.347,46.179 L54.12,46.179 C54.706,46.179 54.006,46.619 54.006,47.075 C54.006,47.532 54.987,47.832 54.401,47.832 L0.224,47.832 Z" id="Fill-486" fill="#000000" fill-rule="nonzero"></path>
                    <path d="M54.8991742,10.9253455 L1.2843737,10.9253455 C0.697762399,10.9253455 0.224055363,10.5549818 0.224055363,10.0987091 C0.224055363,9.64243636 0.697762399,9.27207273 1.2843737,9.27207273 L54.8991742,9.27207273 C55.4857855,9.27207273 55.9619469,9.64243636 55.9619469,10.0987091 C55.9619469,10.5549818 55.4857855,10.9253455 54.8991742,10.9253455" id="Fill-487" fill="#000000" fill-rule="nonzero"></path>
                    <rect id="Rectangle" stroke="#000000" stroke-width="1.65" x="4.625" y="15.096" width="8.329" height="4.35" rx="1"></rect>
                    <rect id="Rectangle" stroke="#000000" stroke-width="1.65" x="4.625" y="23.096" width="8.329" height="4.35" rx="1"></rect>
                    <rect id="Rectangle" stroke="#000000" stroke-width="1.65" x="17.2900009" y="31.096" width="8.329" height="4.35" rx="1"></rect>
                    <rect id="Rectangle" stroke="#000000" stroke-width="1.65" x="17.2900009" y="39.096" width="8.329" height="4.35" rx="1"></rect>
                    <rect id="Rectangle" stroke="#000000" stroke-width="1.65" x="17.292" y="15.096" width="8.329" height="4.35" rx="1"></rect>
                    <rect id="Rectangle" stroke="#000000" stroke-width="1.65" x="17.292" y="23.096" width="8.329" height="4.35" rx="1"></rect>
                    <rect id="Rectangle" stroke="#000000" stroke-width="1.65" x="29.958" y="15.096" width="8.329" height="4.35" rx="1"></rect>
                    <rect id="Rectangle" stroke="#000000" stroke-width="1.65" x="29.958" y="23.096" width="8.329" height="4.35" rx="1"></rect>
                    <rect id="Rectangle" stroke="#000000" stroke-width="1.65" x="29.958" y="31.096" width="8.329" height="4.35" rx="1"></rect>
                    <rect id="Rectangle" stroke="#000000" stroke-width="1.65" x="42.625" y="15.096" width="8.329" height="4.35" rx="1"></rect>
                    <path d="M18.7909204,4.74160909 C18.0390865,4.74160909 17.4287059,5.34297273 17.4287059,6.0837 C17.4287059,6.82442727 18.0390865,7.42579091 18.7909204,7.42579091 C19.5427543,7.42579091 20.1531349,6.82442727 20.1531349,6.0837 C20.1531349,5.34297273 19.5427543,4.74160909 18.7909204,4.74160909 Z" id="Fill-488" fill="#000000" fill-rule="nonzero"></path>
                    <path d="M12.878173,4.74160909 C12.1263391,4.74160909 11.5159585,5.34297273 11.5159585,6.0837 C11.5159585,6.82442727 12.1263391,7.42579091 12.878173,7.42579091 C13.6300069,7.42579091 14.2403875,6.82442727 14.2403875,6.0837 C14.2403875,5.34297273 13.6300069,4.74160909 12.878173,4.74160909 Z" id="Fill-489" fill="#000000" fill-rule="nonzero"></path>
                    <path d="M6.96542561,4.74160909 C6.2135917,4.74160909 5.60321107,5.34297273 5.60321107,6.0837 C5.60321107,6.82442727 6.2135917,7.42579091 6.96542561,7.42579091 C7.71725952,7.42579091 8.32764014,6.82442727 8.32764014,6.0837 C8.32764014,5.34297273 7.71725952,4.74160909 6.96542561,4.74160909 Z" id="Fill-490" fill="#000000" fill-rule="nonzero"></path>
                </g>
            </g>
            <path d="M52.237,46.934 C53.021,46.934 53.805,46.934 54.59,46.934 C54.59,46.934 54.825,46.934 54.825,46.934 C54.842,46.934 55.236,46.934 55.236,46.934 C55.236,46.934 55.354,46.934 55.354,46.934" id="Shape" stroke="#000000"></path>
            <path d="M52.444,46.875 C53.228,46.875 54.012,46.875 54.797,46.875 C54.797,46.875 55.032,46.875 55.032,46.875 C55.049,46.875 55.443,46.875 55.443,46.875 C55.443,46.875 55.561,46.875 55.561,46.875" id="Shape" stroke="#000000"></path>
            <path d="M52.846,47.337 C53.63,47.337 54.414,47.337 55.199,47.337 C55.199,47.337 55.433,47.337 55.433,47.337 C55.451,47.337 55.845,47.337 55.845,47.337 C55.845,47.337 55.963,47.337 55.963,47.337" id="Shape" stroke="#000000"></path>
            <path d="M52.374,46.678 C53.158,46.678 53.942,46.678 54.727,46.678 C54.727,46.678 54.961,46.678 54.961,46.678 C54.979,46.678 55.373,46.678 55.373,46.678 C55.373,46.678 55.491,46.678 55.491,46.678" id="Shape" stroke="#000000"></path>
        </g>
    </g>
</svg>