<?xml version="1.0" encoding="UTF-8"?>
<svg width="24px" height="44px" viewBox="0 0 24 44" version="1.1" xmlns="http://www.w3.org/2000/svg" xmlns:xlink="http://www.w3.org/1999/xlink">
    <!-- Generator: Sketch 44.1 (41455) - http://www.bohemiancoding.com/sketch -->
    <title>who-we-are</title>
    <desc>Created with Sketch.</desc>
    <defs></defs>
    <g id="Mockups" stroke="none" stroke-width="1" fill="none" fill-rule="evenodd">
        <g id="9" transform="translate(-182.000000, -527.000000)" fill="#000000">
            <g id="Icons" transform="translate(171.000000, 527.000000)">
                <g id="who-we-are" transform="translate(11.000000, 0.000000)">
                    <path d="M22.7741448,43.5608 C22.4500921,43.5608 22.1870535,43.3021333 22.1870535,42.9834667 C22.1870535,38.0581333 16.9886513,35.5674667 11.4865345,32.9301333 C5.90170974,30.2541333 0.127063257,27.4861333 0.127063257,21.8394667 C0.127063257,16.7701333 4.92141638,13.9741333 9.4134107,11.7528 C9.70221082,11.6074667 10.0560927,11.7234667 10.2025265,12.0088 C10.3476045,12.2928 10.2309998,12.6408 9.94084378,12.7834667 C5.56952181,14.9461333 1.30124589,17.4261333 1.30124589,21.8394667 C1.30124589,26.7648 6.49829214,29.2554667 12.0017648,31.8928 C17.5865896,34.5688 23.3612361,37.3368 23.3612361,42.9834667 C23.3612361,43.3021333 23.0981975,43.5608 22.7741448,43.5608" id="Fill-500"></path>
                    <path d="M13.8842535,10.8076 C13.6686703,10.8076 13.4625782,10.6916 13.3595321,10.4902667 C13.2130983,10.2049333 13.329703,9.85826667 13.619859,9.71426667 C18.9091043,7.09293333 22.1875958,4.66893333 22.1875958,0.6956 C22.1875958,0.376933333 22.4492785,0.118266667 22.7746871,0.118266667 C23.0987398,0.118266667 23.3617784,0.376933333 23.3617784,0.6956 C23.3617784,5.7556 18.6053897,8.5356 14.1472921,10.7462667 C14.0632282,10.7876 13.972385,10.8076 13.8842535,10.8076" id="Fill-501"></path>
                    <path d="M13.8842535,31.9521333 C13.6686703,31.9521333 13.4625782,31.8361333 13.3595321,31.6348 C13.2130983,31.3494667 13.329703,31.0028 13.619859,30.8588 C18.9091043,28.2361333 22.1875958,25.8134667 22.1875958,21.8401333 C22.1875958,16.9148 16.9891937,14.4241333 11.4870769,11.7854667 C5.90225209,9.10946667 0.127605605,6.34146667 0.127605605,0.696133333 C0.127605605,0.376133333 0.38928834,0.1188 0.714696923,0.1188 C1.03874964,0.1188 1.30178824,0.376133333 1.30178824,0.696133333 C1.30178824,5.62013333 6.49883449,8.1108 12.0009513,10.7481333 C17.5857761,13.4241333 23.3617784,16.1921333 23.3617784,21.8401333 C23.3617784,26.8988 18.6053897,29.6801333 14.1472921,31.8908 C14.0632282,31.9321333 13.972385,31.9521333 13.8842535,31.9521333" id="Fill-502"></path>
                    <path d="M0.714154576,43.5608 C0.390101862,43.5608 0.127063257,43.3021333 0.127063257,42.9834667 C0.127063257,37.9141333 4.92141638,35.1181333 9.41476657,32.8968 C9.70221082,32.7528 10.0560927,32.8688 10.2025265,33.1528 C10.3476045,33.4381333 10.2309998,33.7848 9.94084378,33.9274667 C5.56952181,36.0901333 1.30124589,38.5701333 1.30124589,42.9834667 C1.30124589,43.3021333 1.03820729,43.5608 0.714154576,43.5608" id="Fill-503"></path>
                    <path d="M22.7741448,22.4169333 L0.714154576,22.4169333 C0.390101862,22.4169333 0.127063257,22.1582667 0.127063257,21.8396 C0.127063257,21.5209333 0.390101862,21.2622667 0.714154576,21.2622667 L22.7741448,21.2622667 C23.0981975,21.2622667 23.3612361,21.5209333 23.3612361,21.8396 C23.3612361,22.1582667 23.0981975,22.4169333 22.7741448,22.4169333" id="Fill-504"></path>
                    <path d="M20.5775013,17.2730667 L2.91323866,17.2730667 C2.58783008,17.2730667 2.32614734,17.0144 2.32614734,16.6957333 C2.32614734,16.3770667 2.58783008,16.1184 2.91323866,16.1184 L20.5775013,16.1184 C20.901554,16.1184 21.1645926,16.3770667 21.1645926,16.6957333 C21.1645926,17.0144 20.901554,17.2730667 20.5775013,17.2730667" id="Fill-505"></path>
                    <path d="M21.985029,4.49693333 L1.50462626,4.49693333 C1.17921768,4.49693333 0.916179071,4.23826667 0.916179071,3.9196 C0.916179071,3.60093333 1.17921768,3.34226667 1.50462626,3.34226667 L21.985029,3.34226667 C22.3090817,3.34226667 22.5721203,3.60093333 22.5721203,3.9196 C22.5721203,4.23826667 22.3090817,4.49693333 21.985029,4.49693333" id="Fill-506"></path>
                    <path d="M21.8909316,40.1636 L1.59899475,40.1636 C1.27494203,40.1636 1.01190343,39.9049333 1.01190343,39.5862667 C1.01190343,39.2676 1.27494203,39.0089333 1.59899475,39.0089333 L21.8909316,39.0089333 C22.2149844,39.0089333 22.478023,39.2676 22.478023,39.5862667 C22.478023,39.9049333 22.2149844,40.1636 21.8909316,40.1636" id="Fill-507"></path>
                    <path d="M20.9012828,27.2053333 L2.58755891,27.2053333 C2.26215032,27.2053333 2.00046759,26.9466667 2.00046759,26.628 C2.00046759,26.3093333 2.26215032,26.0506667 2.58755891,26.0506667 L20.9012828,26.0506667 C21.2253355,26.0506667 21.4883741,26.3093333 21.4883741,26.628 C21.4883741,26.9466667 21.2253355,27.2053333 20.9012828,27.2053333" id="Fill-508"></path>
                </g>
            </g>
        </g>
    </g>
</svg>